<svg width="255" height="46" viewBox="0 0 255 46" fill="none" xmlns="http://www.w3.org/2000/svg">
<path d="M0.5 23C0.5 10.5736 10.5736 0.5 23 0.5H232C244.426 0.5 254.5 10.5736 254.5 23C254.5 35.4264 244.426 45.5 232 45.5H23C10.5736 45.5 0.5 35.4264 0.5 23Z" fill="black" stroke="black"/>
<g clip-path="url(#clip0_1_41)">
<path fill-rule="evenodd" clip-rule="evenodd" d="M214.088 15.5717C214.031 15.7267 214 15.9108 214 16.121V29.8786C214 30.0894 214.031 30.2736 214.088 30.4286L221.328 22.9997L214.088 15.5717ZM214.59 30.9564C214.852 31.0466 215.183 30.9995 215.541 30.7912L224.074 25.8165L221.836 23.5211L214.59 30.9564ZM224.722 25.4391L227.365 23.8987C228.212 23.4042 228.212 22.5961 227.365 22.1022L224.721 20.561L222.344 22.9997L224.722 25.4391ZM224.073 20.1832L215.541 15.2091C215.183 15.0003 214.852 14.9534 214.59 15.0438L221.836 22.4783L224.073 20.1832Z" fill="white"/>
</g>
<path d="M29.7301 29C33.054 29 34.9769 26.9386 34.9769 23.5295C34.9769 20.1364 33.054 18.0909 29.842 18.0909H26.1985V29H29.7301ZM27.8445 27.5618V19.5291H29.7408C32.1271 19.5291 33.3576 20.9567 33.3576 23.5295C33.3576 26.1129 32.1271 27.5618 29.6396 27.5618H27.8445ZM40.3422 29.1651C42.6487 29.1651 44.1562 27.4766 44.1562 24.9464C44.1562 22.4002 42.6487 20.7116 40.3422 20.7116C38.0358 20.7116 36.5283 22.4002 36.5283 24.9464C36.5283 27.4766 38.0358 29.1651 40.3422 29.1651ZM40.3476 27.8281C38.8401 27.8281 38.137 26.5124 38.137 24.9411C38.137 23.375 38.8401 22.0433 40.3476 22.0433C41.8444 22.0433 42.5475 23.375 42.5475 24.9411C42.5475 26.5124 41.8444 27.8281 40.3476 27.8281ZM47.4587 29H49.078L50.74 23.0927H50.8625L52.5244 29H54.1491L56.5514 20.8182H54.9055L53.3128 26.8001H53.2329L51.6349 20.8182H49.9889L48.3802 26.8267H48.3003L46.697 20.8182H45.051L47.4587 29ZM59.6555 24.142C59.6555 22.837 60.4545 22.0913 61.5625 22.0913C62.6438 22.0913 63.299 22.7997 63.299 23.9876V29H64.8917V23.7958C64.8917 21.7717 63.7784 20.7116 62.1058 20.7116C60.8754 20.7116 60.071 21.2816 59.6928 22.1499H59.5916V20.8182H58.0629V29H59.6555V24.142ZM68.6204 18.0909H67.0277V29H68.6204V18.0909ZM74.2094 29.1651C76.5159 29.1651 78.0233 27.4766 78.0233 24.9464C78.0233 22.4002 76.5159 20.7116 74.2094 20.7116C71.903 20.7116 70.3955 22.4002 70.3955 24.9464C70.3955 27.4766 71.903 29.1651 74.2094 29.1651ZM74.2148 27.8281C72.7073 27.8281 72.0042 26.5124 72.0042 24.9411C72.0042 23.375 72.7073 22.0433 74.2148 22.0433C75.7116 22.0433 76.4147 23.375 76.4147 24.9411C76.4147 26.5124 75.7116 27.8281 74.2148 27.8281ZM82.1822 29.1811C83.5352 29.1811 84.2969 28.494 84.6005 27.8814H84.6644V29H86.2198V23.5668C86.2198 21.1857 84.3448 20.7116 83.0451 20.7116C81.5643 20.7116 80.2006 21.3082 79.668 22.7997L81.1648 23.1406C81.3991 22.56 81.9957 22.0007 83.0664 22.0007C84.0945 22.0007 84.6218 22.5387 84.6218 23.4656V23.5028C84.6218 24.0835 84.0252 24.0728 82.555 24.2433C81.005 24.4244 79.4176 24.8292 79.4176 26.6882C79.4176 28.2969 80.6268 29.1811 82.1822 29.1811ZM82.5284 27.9027C81.6282 27.9027 80.9783 27.4979 80.9783 26.7095C80.9783 25.8572 81.7347 25.5536 82.6562 25.4311C83.1729 25.3619 84.3981 25.2234 84.6271 24.9943V26.049C84.6271 27.0185 83.8548 27.9027 82.5284 27.9027ZM91.404 29.1598C92.8955 29.1598 93.4814 28.2489 93.7691 27.7269H93.9023V29H95.4577V18.0909H93.865V22.1445H93.7691C93.4814 21.6385 92.9381 20.7116 91.4147 20.7116C89.4385 20.7116 87.9843 22.2724 87.9843 24.9251C87.9843 27.5724 89.4172 29.1598 91.404 29.1598ZM91.7556 27.8015C90.3334 27.8015 89.593 26.5497 89.593 24.9091C89.593 23.2844 90.3174 22.0646 91.7556 22.0646C93.1459 22.0646 93.8916 23.1992 93.8916 24.9091C93.8916 26.6296 93.1299 27.8015 91.7556 27.8015ZM101.828 29H103.474V25.1648H105.712C108.242 25.1648 109.494 23.636 109.494 21.6225C109.494 19.6143 108.252 18.0909 105.717 18.0909H101.828V29ZM103.474 23.7692V19.5025H105.541C107.171 19.5025 107.837 20.3867 107.837 21.6225C107.837 22.8583 107.171 23.7692 105.562 23.7692H103.474ZM113.603 29.1811C114.956 29.1811 115.718 28.494 116.021 27.8814H116.085V29H117.641V23.5668C117.641 21.1857 115.766 20.7116 114.466 20.7116C112.985 20.7116 111.622 21.3082 111.089 22.7997L112.586 23.1406C112.82 22.56 113.417 22.0007 114.487 22.0007C115.515 22.0007 116.043 22.5387 116.043 23.4656V23.5028C116.043 24.0835 115.446 24.0728 113.976 24.2433C112.426 24.4244 110.839 24.8292 110.839 26.6882C110.839 28.2969 112.048 29.1811 113.603 29.1811ZM113.949 27.9027C113.049 27.9027 112.399 27.4979 112.399 26.7095C112.399 25.8572 113.156 25.5536 114.077 25.4311C114.594 25.3619 115.819 25.2234 116.048 24.9943V26.049C116.048 27.0185 115.276 27.9027 113.949 27.9027ZM120.476 32.0682C121.792 32.0682 122.623 31.381 123.097 30.092L126.479 20.8342L124.759 20.8182L122.686 27.1676H122.601L120.529 20.8182H118.825L121.818 29.1065L121.621 29.6499C121.216 30.7365 120.646 30.8271 119.773 30.5874L119.389 31.8924C119.581 31.9776 119.996 32.0682 120.476 32.0682ZM131.799 20.8182H130.121V18.858H128.528V20.8182H127.33V22.0966H128.528V26.9279C128.523 28.4141 129.658 29.1332 130.915 29.1065C131.421 29.1012 131.762 29.0053 131.948 28.9361L131.661 27.6204C131.554 27.6417 131.357 27.6896 131.101 27.6896C130.585 27.6896 130.121 27.5192 130.121 26.5977V22.0966H131.799V20.8182ZM133.561 29H135.154V23.9556C135.154 22.853 135.926 22.0859 136.831 22.0859C137.716 22.0859 138.328 22.6719 138.328 23.5614V29H139.916V23.7852C139.916 22.7997 140.518 22.0859 141.556 22.0859C142.398 22.0859 143.09 22.5547 143.09 23.6626V29H144.683V23.5135C144.683 21.6438 143.639 20.7116 142.158 20.7116C140.981 20.7116 140.097 21.2763 139.703 22.1499H139.617C139.26 21.255 138.509 20.7116 137.417 20.7116C136.336 20.7116 135.532 21.2496 135.191 22.1499H135.09V20.8182H133.561V29ZM151.837 29L152.838 26.1129H157.1L158.096 29H159.843L155.917 18.0909H154.015L150.09 29H151.837ZM153.318 24.728L154.926 20.0724H155.012L156.62 24.728H153.318ZM161.29 32.0682H162.883V27.7269H162.979C163.267 28.2489 163.853 29.1598 165.344 29.1598C167.326 29.1598 168.764 27.5724 168.764 24.9251C168.764 22.2724 167.304 20.7116 165.328 20.7116C163.81 20.7116 163.261 21.6385 162.979 22.1445H162.846V20.8182H161.29V32.0682ZM162.851 24.9091C162.851 23.1992 163.597 22.0646 164.987 22.0646C166.431 22.0646 167.155 23.2844 167.155 24.9091C167.155 26.5497 166.409 27.8015 164.987 27.8015C163.618 27.8015 162.851 26.6296 162.851 24.9091ZM170.548 32.0682H172.141V27.7269H172.237C172.524 28.2489 173.11 29.1598 174.602 29.1598C176.583 29.1598 178.022 27.5724 178.022 24.9251C178.022 22.2724 176.562 20.7116 174.586 20.7116C173.068 20.7116 172.519 21.6385 172.237 22.1445H172.104V20.8182H170.548V32.0682ZM172.109 24.9091C172.109 23.1992 172.855 22.0646 174.245 22.0646C175.688 22.0646 176.413 23.2844 176.413 24.9091C176.413 26.5497 175.667 27.8015 174.245 27.8015C172.876 27.8015 172.109 26.6296 172.109 24.9091Z" fill="white"/>
<g clip-path="url(#clip1_1_41)">
<path d="M200.659 30.3557C199.759 31.1979 198.765 31.0666 197.819 30.6695C196.812 30.2644 195.891 30.2388 194.828 30.6695C193.504 31.2203 192.802 31.0602 192.004 30.3557C187.502 25.8883 188.167 19.0831 193.283 18.8269C194.524 18.891 195.393 19.4882 196.124 19.5378C197.211 19.3249 198.25 18.7148 199.413 18.7949C200.811 18.9038 201.855 19.4354 202.553 20.3913C199.679 22.0566 200.36 25.7073 203 26.7321C202.472 28.0691 201.794 29.3902 200.658 30.3669L200.659 30.3557ZM196.024 18.7789C195.89 16.7934 197.559 15.1601 199.48 15C199.744 17.2897 197.32 19.003 196.024 18.7789Z" fill="white"/>
</g>
<defs>
<clipPath id="clip0_1_41">
<rect width="14" height="16" fill="white" transform="translate(214 15)"/>
</clipPath>
<clipPath id="clip1_1_41">
<rect width="14" height="16" fill="white" transform="translate(189 15)"/>
</clipPath>
</defs>
</svg>
