<svg width="90" height="28" viewBox="0 0 90 28" fill="none" xmlns="http://www.w3.org/2000/svg">
<g clip-path="url(#clip0_1_8)">
<path d="M89.696 8.25826C89.285 7.09317 88.5192 6.08379 87.5047 5.36993C86.4902 4.65607 85.2771 4.27306 84.0336 4.27393H83.9798C83.1718 4.27305 82.3721 4.4348 81.6289 4.7494C80.8857 5.064 80.2144 5.52491 79.6556 6.10431C79.0972 5.52502 78.4261 5.06415 77.6831 4.74956C76.9401 4.43496 76.1406 4.27315 75.3329 4.27393H75.279C73.8437 4.27242 72.4558 4.78394 71.3692 5.71492V5.25972C71.3538 5.03868 71.2547 4.83163 71.0917 4.68027C70.9288 4.5289 70.714 4.44445 70.4908 4.44394H66.4858C66.3692 4.44394 66.2538 4.46675 66.1461 4.51107C66.0385 4.55539 65.9407 4.62035 65.8584 4.70224C65.776 4.78412 65.7106 4.88131 65.6662 4.98827C65.6218 5.09522 65.5989 5.20983 65.5991 5.32553V26.9528C65.5991 27.1863 65.6926 27.4102 65.8588 27.5752C66.0251 27.7403 66.2506 27.8331 66.4858 27.8331H70.4908C70.7048 27.8326 70.9113 27.7553 71.0723 27.6154C71.2333 27.4756 71.3378 27.2826 71.3664 27.0721V11.5502C71.3664 11.4981 71.3664 11.446 71.3664 11.3939C71.3951 11.0434 71.5508 10.7151 71.8049 10.47C72.0588 10.2249 72.3938 10.0797 72.7475 10.0612H73.4892C73.7974 10.0827 74.092 10.196 74.3344 10.3862C74.5084 10.5265 74.6477 10.7045 74.7421 10.9065C74.8364 11.1084 74.883 11.329 74.8785 11.5515L74.8937 26.998C74.8937 27.2316 74.987 27.4556 75.1533 27.6209C75.3196 27.7862 75.545 27.8793 75.7803 27.8796H79.7854C80.0141 27.8809 80.2344 27.7946 80.4004 27.6385C80.5664 27.4824 80.6652 27.2687 80.6763 27.0419V11.5337C80.6711 11.2886 80.7281 11.0462 80.8423 10.8289C80.9565 10.6115 81.124 10.4262 81.3295 10.2902C81.5508 10.1483 81.8043 10.0634 82.067 10.0434H82.8072C83.1887 10.0632 83.5473 10.2301 83.8068 10.5084C84.0663 10.7868 84.2061 11.1546 84.1966 11.5337L84.2132 26.9597C84.2132 27.1931 84.3066 27.417 84.4729 27.5821C84.6391 27.7471 84.8647 27.8399 85.0998 27.8399H89.1049C89.2215 27.8401 89.3369 27.8175 89.4447 27.7732C89.5524 27.7291 89.6503 27.6643 89.7328 27.5826C89.8152 27.5008 89.8808 27.4037 89.9254 27.2969C89.97 27.1899 89.993 27.0754 89.993 26.9597V10.3697C90.0285 9.65444 89.9253 8.93905 89.6892 8.26236" fill="#00BAF2"/>
<path d="M62.5394 4.50122H60.2454V0.808932C60.246 0.703011 60.2255 0.598024 60.185 0.499993C60.1447 0.401962 60.0851 0.312813 60.01 0.237661C59.9347 0.162508 59.8454 0.10283 59.7469 0.0620461C59.6485 0.0212625 59.5428 0.000179062 59.4361 0C59.385 0.000596273 59.334 0.00657162 59.2842 0.0178246C56.7389 0.70336 57.2512 4.20781 52.6068 4.50671H52.1551C52.0901 4.50683 52.0252 4.51419 51.9617 4.52865C51.766 4.57274 51.591 4.68153 51.4655 4.8372C51.3401 4.99288 51.2716 5.18621 51.2712 5.38557V9.36171C51.2712 9.59523 51.3646 9.81932 51.5308 9.98461C51.6971 10.1499 51.9226 10.2429 52.1579 10.2432H54.5789V27.128C54.5787 27.2423 54.6012 27.3556 54.6451 27.4613C54.689 27.567 54.7535 27.6631 54.8348 27.744C54.9161 27.825 55.0126 27.8893 55.119 27.9332C55.2253 27.9771 55.3393 27.9998 55.4545 28H59.421C59.6537 27.9996 59.8767 27.9076 60.0411 27.7441C60.2055 27.5807 60.2979 27.3591 60.2979 27.128V10.2446H62.5449C62.6613 10.2445 62.7767 10.2215 62.8841 10.1771C62.9917 10.1327 63.0893 10.0677 63.1715 9.98583C63.2537 9.90397 63.3188 9.80681 63.3633 9.69995C63.4076 9.59317 63.4303 9.47865 63.4301 9.36301V5.38694C63.4301 5.15385 63.3369 4.93031 63.1709 4.76549C63.0049 4.60067 62.7797 4.50807 62.5449 4.50807" fill="#00BAF2"/>
<path d="M48.1091 4.50158H44.1039C43.8691 4.50158 43.6437 4.59412 43.4774 4.7589C43.3112 4.92368 43.2176 5.14722 43.2173 5.38044V13.6164C43.2136 13.8611 43.1133 14.0946 42.9379 14.2664C42.7624 14.4382 42.526 14.5347 42.2796 14.5351H40.5974C40.4739 14.5351 40.3517 14.5109 40.2377 14.464C40.1237 14.417 40.02 14.3482 39.9328 14.2615C39.8456 14.1748 39.7765 14.0719 39.7293 13.9586C39.6822 13.8453 39.6581 13.7239 39.6583 13.6014L39.6404 5.37495C39.64 5.14174 39.5464 4.9182 39.3801 4.75342C39.2139 4.58864 38.9885 4.49609 38.7536 4.49609H34.7485C34.6321 4.49592 34.5168 4.5185 34.4091 4.56258C34.3015 4.60664 34.2036 4.67133 34.1212 4.75294C34.0387 4.83455 33.9732 4.93149 33.9285 5.03821C33.8838 5.14494 33.8607 5.25936 33.8605 5.37495V14.3993C33.8283 15.1787 33.9589 15.9563 34.2442 16.6831C34.5297 17.4099 34.9634 18.0701 35.5184 18.6223C36.0735 19.1744 36.7376 19.6066 37.4691 19.8913C38.2006 20.1762 38.9836 20.3075 39.7688 20.2772C39.7688 20.2772 42.361 20.2772 42.4411 20.2936C42.67 20.317 42.882 20.4235 43.0367 20.5926C43.1913 20.7617 43.2776 20.9816 43.279 21.21C43.2803 21.4384 43.1967 21.6592 43.0441 21.8302C42.8916 22.0012 42.6808 22.1101 42.4522 22.1363L42.3859 22.1473L36.5191 22.1692C36.2839 22.1692 36.0584 22.2619 35.8921 22.427C35.7258 22.5921 35.6325 22.816 35.6325 23.0494V27.0255C35.6325 27.259 35.7258 27.4829 35.8921 27.648C36.0584 27.813 36.2839 27.9058 36.5191 27.9058H43.0834C43.8687 27.9372 44.6521 27.8069 45.3841 27.523C46.1162 27.239 46.7812 26.8076 47.3369 26.2559C47.8928 25.7042 48.3275 25.0442 48.6137 24.3176C48.8999 23.5908 49.0313 22.8131 48.9998 22.0334V5.38044C48.9998 5.26491 48.9769 5.15051 48.9323 5.04379C48.8877 4.93708 48.8224 4.84013 48.7401 4.7585C48.6577 4.67687 48.5599 4.61217 48.4524 4.56808C48.3448 4.524 48.2296 4.5014 48.1132 4.50158" fill="#002970"/>
<path d="M9.6377 4.50012H0.870634C0.639876 4.50012 0.418565 4.59113 0.255394 4.75312C0.0922235 4.91511 0.000552612 5.13481 0.000552612 5.3639V9.26322C-0.000184204 9.26822 -0.000184204 9.27331 0.000552612 9.2783C0.000552612 9.30572 0.000552612 9.32355 0.000552612 9.34416V26.9967C-0.00633598 27.2195 0.0744277 27.4364 0.225744 27.6012C0.37706 27.7659 0.587045 27.8658 0.811239 27.8796H4.89784C5.133 27.8796 5.35851 27.7869 5.52478 27.6218C5.69106 27.4567 5.78449 27.2328 5.78449 26.9994L5.79968 20.9461H9.6377C10.3628 20.9808 11.0873 20.8646 11.7645 20.6047C12.4417 20.345 13.0567 19.9474 13.5699 19.4376C14.0831 18.9279 14.4832 18.3171 14.7446 17.6448C15.006 16.9723 15.1227 16.2531 15.0873 15.5331V9.91172C15.1228 9.19143 15.0062 8.47173 14.7451 7.79881C14.4839 7.12587 14.0839 6.51458 13.5707 6.00412C13.0576 5.49367 12.4426 5.09534 11.7653 4.83468C11.088 4.57403 10.3633 4.4568 9.6377 4.49052V4.50012ZM9.28549 11.7873V14.2443C9.28549 14.4917 9.1866 14.729 9.01052 14.904C8.83444 15.0791 8.59557 15.1777 8.34637 15.178H5.79968V10.2696H8.34637C8.59557 10.2699 8.83444 10.3685 9.01052 10.5436C9.1866 10.7186 9.28549 10.9559 9.28549 11.2033V11.7873Z" fill="#002970"/>
<path d="M25.2876 4.52337H19.7233C19.4954 4.5163 19.2739 4.59872 19.1069 4.75272C18.9399 4.90673 18.8408 5.11991 18.8311 5.34601V6.89394V6.92548C18.8311 6.93507 18.8311 6.94604 18.8311 6.94604V9.0808C18.8401 9.32121 18.9447 9.54825 19.122 9.71224C19.2993 9.87622 19.5349 9.96368 19.7771 9.95556H25.0763C25.2866 9.9829 25.4809 10.0817 25.6262 10.2352C25.7715 10.3886 25.8587 10.5873 25.8731 10.7974V11.3102C25.861 11.5154 25.7768 11.71 25.6353 11.8603C25.4938 12.0106 25.3039 12.1069 25.0984 12.1328H22.4743C21.7088 12.0765 20.9398 12.1779 20.2157 12.4308C19.4915 12.6836 18.8279 13.0823 18.2664 13.602C17.705 14.1217 17.2578 14.751 16.9531 15.4505C16.6483 16.1499 16.4926 16.9044 16.4957 17.6665V22.3034C16.4536 23.0419 16.5703 23.7809 16.8378 24.4713C17.1054 25.1617 17.5178 25.7877 18.0477 26.3077C18.5776 26.8278 19.2128 27.2301 19.9112 27.4878C20.6096 27.7455 21.3552 27.853 22.0987 27.8028H29.3741C29.9805 27.8227 30.57 27.6028 31.0131 27.1915C31.4562 26.7802 31.7166 26.211 31.7372 25.609V10.5012C31.7372 6.83773 29.8341 4.52337 25.2876 4.52337ZM25.9271 21.1462V21.7674C25.9263 21.8166 25.9207 21.8657 25.9104 21.914C25.9022 21.958 25.8898 22.0012 25.8731 22.0429C25.8047 22.2218 25.6822 22.3753 25.5225 22.4826C25.3628 22.5898 25.1737 22.6455 24.981 22.6421H23.3113C23.0689 22.6502 22.8334 22.5625 22.6562 22.3982C22.479 22.2338 22.3749 22.0065 22.3666 21.766V21.0146V20.9872V18.9882V18.3588C22.3767 18.1193 22.4815 17.8934 22.6584 17.73C22.8352 17.5668 23.0699 17.4794 23.3113 17.4868H24.9823C25.225 17.4791 25.4607 17.5671 25.638 17.7315C25.8153 17.896 25.9197 18.1235 25.9284 18.3643L25.9271 21.1462Z" fill="#002970"/>
</g>
<defs>
<clipPath id="clip0_1_8">
<rect width="90" height="28" fill="white"/>
</clipPath>
</defs>
</svg>
