<svg width="115" height="38" viewBox="0 0 115 38" fill="none" xmlns="http://www.w3.org/2000/svg">
<path d="M0 19C0 8.50659 8.50659 0 19 0H96C106.493 0 115 8.50659 115 19C115 29.4934 106.493 38 96 38H19C8.50659 38 0 29.4934 0 19Z" fill="#00BAF2"/>
<g clip-path="url(#clip0_1_19)">
<path d="M96 36C105.389 36 113 28.3888 113 19C113 9.61116 105.389 2 96 2C86.6112 2 79 9.61116 79 19C79 28.3888 86.6112 36 96 36Z" fill="#002970"/>
<path d="M96 24.6665C100.381 24.6665 103.933 21.1146 103.933 16.7331C103.933 12.3517 100.381 8.7998 96 8.7998C91.6185 8.7998 88.0667 12.3517 88.0667 16.7331C88.0667 21.1146 91.6185 24.6665 96 24.6665Z" fill="white"/>
<path fill-rule="evenodd" clip-rule="evenodd" d="M83.079 30.048C85.584 25.4894 90.4312 22.3999 95.9999 22.3999C101.569 22.3999 106.416 25.4894 108.921 30.048C105.803 33.691 101.171 35.9999 95.9999 35.9999C90.8288 35.9999 86.1969 33.691 83.079 30.048Z" fill="white"/>
</g>
<path d="M28.0046 17.0898H29.9062C29.869 15.2468 28.2976 13.9418 25.9751 13.9418C23.6847 13.9418 21.9641 15.2308 21.9695 17.1591C21.9695 18.7251 23.0827 19.6254 24.8778 20.0888L26.119 20.4084C27.2962 20.7067 28.0739 21.0742 28.0792 21.9212C28.0739 22.8533 27.1896 23.4766 25.9006 23.4766C24.6648 23.4766 23.706 22.9226 23.6261 21.7773H21.6818C21.7617 23.9453 23.3757 25.1651 25.9165 25.1651C28.532 25.1651 30.0501 23.8601 30.0554 21.9371C30.0501 20.0462 28.4893 19.1832 26.8487 18.7944L25.826 18.5387C24.9311 18.3256 23.9616 17.9474 23.9723 17.0366C23.9776 16.2163 24.7127 15.6143 25.9485 15.6143C27.1257 15.6143 27.9034 16.163 28.0046 17.0898ZM31.732 25H33.6602V16.8182H31.732V25ZM32.7014 15.657C33.314 15.657 33.8147 15.1882 33.8147 14.6129C33.8147 14.0323 33.314 13.5636 32.7014 13.5636C32.0835 13.5636 31.5828 14.0323 31.5828 14.6129C31.5828 15.1882 32.0835 15.657 32.7014 15.657ZM39.2013 28.2386C41.4119 28.2386 43.0419 27.2266 43.0419 25.1332V16.8182H41.1403V18.1712H41.0337C40.7408 17.5799 40.1282 16.7116 38.6847 16.7116C36.7937 16.7116 35.3075 18.1925 35.3075 20.8825C35.3075 23.5511 36.7937 24.8828 38.6793 24.8828C40.0803 24.8828 40.7354 24.1317 41.0337 23.5298H41.1296V25.0799C41.1296 26.2837 40.3306 26.7791 39.2333 26.7791C38.0721 26.7791 37.5607 26.2305 37.3263 25.7511L35.5898 26.1719C35.9414 27.3171 37.1186 28.2386 39.2013 28.2386ZM39.2173 23.37C37.9442 23.37 37.2731 22.3793 37.2731 20.8718C37.2731 19.3857 37.9336 18.2937 39.2173 18.2937C40.4585 18.2937 41.1403 19.3217 41.1403 20.8718C41.1403 22.4325 40.4478 23.37 39.2173 23.37ZM46.9464 20.206C46.9464 19.0234 47.6602 18.3416 48.6776 18.3416C49.6737 18.3416 50.2702 18.9968 50.2702 20.0888V25H52.1985V19.7905C52.2038 17.8303 51.0852 16.7116 49.3967 16.7116C48.1715 16.7116 47.3299 17.2976 46.957 18.2085H46.8612V16.8182H45.0181V25H46.9464V20.206ZM59.9409 14.0909H57.9647V25H59.9409V14.0909ZM63.9239 20.206C63.9239 19.0234 64.6377 18.3416 65.6551 18.3416C66.6512 18.3416 67.2478 18.9968 67.2478 20.0888V25H69.176V19.7905C69.1814 17.8303 68.0628 16.7116 66.3742 16.7116C65.1491 16.7116 64.3074 17.2976 63.9346 18.2085H63.8387V16.8182H61.9956V25H63.9239V20.206Z" fill="white"/>
<defs>
<clipPath id="clip0_1_19">
<rect width="34" height="34" fill="white" transform="translate(79 2)"/>
</clipPath>
</defs>
</svg>
